<?xml version="1.0" standalone="no"?>
<!DOCTYPE svg PUBLIC "-//W3C//DTD SVG 20010904//EN"
 "http://www.w3.org/TR/2001/REC-SVG-20010904/DTD/svg10.dtd">
<svg version="1.0" xmlns="http://www.w3.org/2000/svg"
 width="360.000000pt" height="360.000000pt" viewBox="0 0 360.000000 360.000000"
 preserveAspectRatio="xMidYMid meet">

<g transform="translate(0.000000,360.000000) scale(0.100000,-0.100000)"
fill="#000000" stroke="none">
<path d="M1170 3423 c-98 -5 -211 -22 -245 -39 -18 -8 -38 -27 -44 -42 -9 -22
-27 -193 -77 -722 -3 -30 -7 -69 -10 -87 l-5 -31 -50 13 c-28 8 -118 23 -199
35 -224 32 -249 22 -159 -62 86 -81 146 -116 254 -149 55 -17 114 -35 132 -40
30 -10 32 -13 38 -77 3 -37 8 -81 11 -98 4 -31 4 -31 -36 -30 -23 0 -46 -6
-55 -14 -13 -14 -12 -19 11 -51 17 -25 27 -54 31 -95 l5 -59 -37 55 c-21 30
-41 68 -44 84 -8 38 -28 45 -37 12 -4 -18 1 -35 18 -58 21 -30 24 -47 28 -168
5 -148 24 -181 26 -45 0 44 2 86 2 93 6 42 52 -35 52 -86 0 -16 -7 -45 -15
-64 -12 -30 -12 -38 0 -55 10 -14 22 -19 37 -16 38 7 70 -62 76 -159 5 -80 -4
-108 -35 -108 -18 0 -46 66 -38 91 4 10 3 28 0 39 -6 20 -42 46 -52 37 -2 -3
10 -51 27 -107 31 -101 44 -122 104 -165 23 -17 29 -31 37 -90 24 -177 72
-297 170 -427 85 -113 82 -111 77 -48 -3 42 -21 90 -70 195 -82 172 -95 216
-113 377 -9 80 -22 146 -34 174 -23 52 -28 51 59 19 37 -14 77 -16 235 -13
185 3 191 4 248 31 62 31 100 72 115 127 9 31 10 24 11 -49 2 -135 14 -84 15
62 1 126 3 135 29 180 24 41 32 47 61 47 22 0 40 -8 56 -25 23 -24 24 -33 28
-203 l4 -177 29 -37 c16 -20 29 -43 29 -50 0 -26 -59 -107 -89 -122 -16 -9
-44 -16 -61 -16 -36 0 -125 42 -138 66 -8 15 -10 15 -15 0 -7 -19 -48 -21 -65
-4 -7 7 -12 22 -12 35 0 13 -4 23 -10 23 -16 0 -12 -53 6 -79 20 -27 72 -51
112 -51 16 0 47 -7 67 -16 32 -13 45 -14 81 -4 37 11 45 10 60 -5 12 -12 24
-14 43 -8 34 10 137 10 181 0 l35 -8 -32 26 c-31 25 -43 58 -25 69 4 2 20 -11
35 -30 16 -19 32 -34 38 -34 6 0 -10 26 -35 58 -25 31 -52 75 -62 97 -15 38
-30 54 -46 55 -4 0 1 -15 12 -32 35 -58 24 -98 -28 -98 -15 0 -17 12 -17 80 0
76 1 81 20 75 11 -3 44 -8 73 -12 42 -5 51 -3 47 8 -4 12 24 14 162 15 122 1
181 5 216 17 26 8 47 13 47 11 0 -1 -30 -49 -66 -105 -37 -57 -80 -132 -97
-167 l-30 -64 6 -141 c5 -134 18 -210 38 -231 18 -19 29 50 29 185 0 137 1
140 31 197 l31 57 -6 -69 c-6 -58 -3 -77 16 -123 l23 -55 -29 -107 c-15 -58
-31 -115 -34 -126 -4 -17 1 -15 27 10 19 17 58 82 91 148 65 131 98 248 102
364 3 64 5 72 21 67 28 -9 55 5 77 40 27 44 25 50 -9 43 -16 -4 -36 -1 -46 7
-16 11 -18 29 -16 142 3 217 30 374 81 473 37 71 32 98 -17 92 -10 -1 -13 23
-13 94 0 52 3 95 8 95 28 0 210 34 272 51 147 40 320 124 320 155 0 29 -42 34
-295 34 l-255 0 -9 23 c-5 12 -28 175 -51 362 -46 377 -53 410 -79 424 -75 41
-1075 99 -1421 84z m-130 -532 c5 -11 19 -23 30 -26 27 -9 26 -43 -5 -195 -14
-68 -25 -140 -25 -162 0 -37 3 -40 44 -58 107 -48 325 -69 721 -70 143 -1 231
-5 219 -10 -12 -4 -118 -13 -236 -19 -308 -16 -488 2 -743 75 -128 36 -221 94
-152 94 46 0 87 70 87 147 0 20 8 41 21 54 18 18 20 25 10 40 -12 21 -14 70
-5 118 7 36 19 40 34 12z m-65 -641 c53 -11 100 -20 104 -20 3 -1 -7 -8 -22
-16 -40 -22 -28 -27 27 -12 38 10 66 9 164 -5 172 -25 356 -31 542 -18 251 18
578 50 666 65 44 8 83 11 88 6 4 -5 1 -31 -9 -60 -16 -48 -16 -65 1 -132 5
-23 2 -29 -19 -37 -14 -5 -28 -15 -32 -20 -4 -8 -149 -11 -454 -11 l-448 0 5
51 c3 37 2 50 -7 45 -6 -4 -11 -18 -11 -32 0 -14 -5 -34 -10 -45 -10 -18 -25
-19 -334 -19 -278 0 -325 2 -330 15 -10 27 -30 265 -22 265 2 0 48 -9 101 -20z
m235 -354 c0 -3 -24 -12 -52 -20 -70 -21 -114 -49 -139 -88 -18 -29 -20 -46
-17 -140 2 -59 0 -104 -4 -100 -13 13 -48 163 -48 206 0 60 18 113 43 131 16
11 48 15 119 15 54 0 98 -2 98 -4z m965 -6 c-11 -4 -46 -18 -78 -30 -91 -36
-121 -86 -122 -205 0 -27 4 -65 8 -83 11 -52 -10 -28 -28 31 -23 75 -30 186
-16 230 19 58 41 67 156 66 64 0 93 -3 80 -9z"/>
<path d="M2192 2194 c-89 -15 -138 -33 -92 -34 14 0 47 7 74 15 64 20 140 19
182 -1 43 -20 54 -13 18 11 -37 24 -85 26 -182 9z"/>
<path d="M1073 2109 c-18 -12 -33 -26 -33 -32 0 -5 9 -2 20 8 42 38 155 27
395 -42 14 -3 17 -2 10 5 -13 14 -285 82 -327 82 -18 0 -48 -10 -65 -21z"/>
<path d="M2040 2086 c-135 -24 -165 -32 -130 -34 24 -2 120 11 213 29 l168 33
76 -23 c41 -12 78 -20 80 -17 11 10 -132 46 -181 45 -28 -1 -130 -15 -226 -33z"/>
<path d="M2782 2029 c-48 -35 -52 -45 -50 -124 1 -44 -4 -71 -20 -102 -15 -28
-22 -60 -22 -97 0 -32 -9 -79 -20 -108 -24 -64 -25 -101 -4 -119 14 -11 18
-10 30 6 8 10 14 31 14 46 0 15 16 57 35 94 29 53 36 78 36 123 0 31 0 93 0
137 1 91 13 78 27 -28 l8 -62 12 40 c14 46 16 211 4 219 -5 3 -27 -8 -50 -25z"/>
<path d="M810 1575 c0 -30 28 -101 36 -92 6 6 -23 117 -31 117 -3 0 -5 -11 -5
-25z"/>
<path d="M1427 1323 c-8 -16 -20 -45 -26 -65 -7 -21 -26 -52 -42 -69 -16 -17
-28 -33 -26 -35 2 -2 19 4 38 14 29 14 38 28 61 92 31 86 31 90 18 90 -5 0
-16 -12 -23 -27z"/>
<path d="M1124 1164 c4 -27 25 -103 46 -169 34 -106 38 -128 33 -187 -8 -98 9
-122 19 -28 10 84 10 97 2 193 -5 56 -8 66 -19 57 -21 -18 -37 -2 -30 30 4 19
2 29 -8 33 -9 3 -18 26 -22 56 -4 28 -12 54 -17 57 -7 5 -8 -9 -4 -42z"/>
<path d="M1865 1150 c-3 -5 -12 -7 -19 -4 -8 3 -17 1 -20 -5 -4 -6 -13 -8 -21
-4 -9 3 -21 1 -28 -5 -6 -5 -33 -8 -59 -7 -42 3 -48 1 -48 -16 0 -25 -8 -24
-39 5 -37 34 -93 42 -116 16 -10 -11 -31 -20 -46 -20 -15 0 -41 -11 -57 -25
-17 -14 -37 -25 -46 -25 -21 0 -96 -115 -96 -146 0 -13 -9 -41 -21 -64 -16
-31 -20 -50 -15 -87 5 -32 2 -65 -8 -98 -27 -88 -13 -187 33 -222 25 -19 31
-16 31 17 0 19 6 33 16 37 8 3 13 12 9 21 -3 8 14 46 40 87 48 78 54 95 30 95
-8 0 -15 1 -15 3 0 27 32 142 42 148 7 5 160 10 341 11 180 1 341 2 359 2 26
1 37 -6 55 -33 13 -19 23 -46 23 -60 0 -49 22 -105 52 -133 22 -21 28 -33 23
-49 -5 -15 -3 -20 6 -17 8 2 22 35 31 73 19 76 24 57 -55 240 -15 33 -31 79
-37 102 -15 60 -54 103 -93 103 -48 0 -107 19 -114 37 -6 14 -8 14 -19 -2 -12
-16 -16 -16 -58 9 -50 29 -52 30 -61 16z"/>
<path d="M1765 770 c-11 -4 -41 -5 -67 -3 -69 8 -101 -9 -132 -70 -24 -47 -26
-57 -17 -101 11 -57 6 -76 -19 -76 -28 0 -48 26 -43 54 6 29 -8 34 -27 11 -18
-22 -30 -18 -30 9 0 38 -17 40 -50 7 -19 -19 -30 -40 -30 -58 0 -15 -9 -43
-20 -61 -11 -18 -20 -38 -20 -45 0 -26 45 -117 58 -117 7 0 20 -7 28 -15 9 -8
26 -15 38 -15 12 0 33 -11 46 -25 13 -14 30 -25 38 -25 8 0 29 -16 46 -35 31
-33 35 -34 65 -24 18 6 50 8 73 5 32 -5 43 -3 54 11 11 15 16 16 33 6 15 -10
22 -9 32 3 9 11 24 13 61 8 38 -5 53 -3 67 10 10 9 22 16 27 14 5 -1 21 10 36
25 15 15 36 27 47 27 10 0 31 14 45 31 18 21 31 29 45 24 14 -4 20 1 26 22 3
15 14 32 23 39 9 7 28 33 42 58 22 40 23 49 12 79 -7 18 -12 42 -12 53 0 11
-18 41 -40 68 -31 37 -41 44 -46 32 -3 -9 -16 -16 -27 -16 -20 0 -20 -1 -2
-14 28 -20 12 -46 -28 -46 -19 0 -37 -3 -41 -7 -4 -5 -20 -8 -34 -8 -22 0 -29
-6 -37 -32 -5 -18 -12 -33 -16 -33 -9 0 -25 49 -33 101 -7 41 -44 95 -83 121
-30 19 -56 22 -88 8z"/>
</g>
</svg>
